<mxfile host="app.diagrams.net" modified="2022-09-23T05:06:20.470Z" agent="5.0 (Macintosh)" etag="ym2ZgyxNbaRFlGm9VteT" version="20.3.3" type="github">
  <diagram id="hSpV1MgLl40jB2ClibWX" name="Page-1">
    <mxGraphModel dx="946" dy="1626" grid="1" gridSize="10" guides="1" tooltips="1" connect="1" arrows="1" fold="1" page="1" pageScale="1" pageWidth="850" pageHeight="1100" math="0" shadow="0">
      <root>
        <mxCell id="0" />
        <mxCell id="1" parent="0" />
        <mxCell id="XWJMHJDdhMRQOgqJG1MP-10" value="" style="rounded=1;whiteSpace=wrap;html=1;dashed=1;" vertex="1" parent="1">
          <mxGeometry x="310" y="560" width="160" height="70" as="geometry" />
        </mxCell>
        <mxCell id="XWJMHJDdhMRQOgqJG1MP-1" value="" style="rounded=1;whiteSpace=wrap;html=1;dashed=1;" vertex="1" parent="1">
          <mxGeometry x="180" y="220" width="450" height="80" as="geometry" />
        </mxCell>
        <mxCell id="RC4oqEELy3gwianFtOuK-1" value="User" style="ellipse;shape=cloud;whiteSpace=wrap;html=1;fillColor=#e1d5e7;strokeColor=#9673a6;" parent="1" vertex="1">
          <mxGeometry x="328.99" y="-140" width="110" height="60" as="geometry" />
        </mxCell>
        <mxCell id="RC4oqEELy3gwianFtOuK-3" value="App Server1" style="rounded=1;whiteSpace=wrap;html=1;fillColor=#fff2cc;strokeColor=#d6b656;" parent="1" vertex="1">
          <mxGeometry x="194" y="240" width="90" height="40" as="geometry" />
        </mxCell>
        <mxCell id="RC4oqEELy3gwianFtOuK-5" value="" style="endArrow=classic;html=1;rounded=0;entryX=0.5;entryY=0;entryDx=0;entryDy=0;edgeStyle=orthogonalEdgeStyle;" parent="1" source="SCMvMcW7dWXdQyEaetod-3" target="RC4oqEELy3gwianFtOuK-3" edge="1">
          <mxGeometry width="50" height="50" relative="1" as="geometry">
            <mxPoint x="352.5" y="150" as="sourcePoint" />
            <mxPoint x="430" y="190" as="targetPoint" />
          </mxGeometry>
        </mxCell>
        <mxCell id="RC4oqEELy3gwianFtOuK-6" value="" style="endArrow=classic;html=1;rounded=0;exitX=0.55;exitY=0.95;exitDx=0;exitDy=0;exitPerimeter=0;entryX=0.5;entryY=0;entryDx=0;entryDy=0;entryPerimeter=0;" parent="1" source="RC4oqEELy3gwianFtOuK-1" target="XWJMHJDdhMRQOgqJG1MP-7" edge="1">
          <mxGeometry width="50" height="50" relative="1" as="geometry">
            <mxPoint x="380" y="240" as="sourcePoint" />
            <mxPoint x="393.67291178766595" y="111.24902419984392" as="targetPoint" />
          </mxGeometry>
        </mxCell>
        <mxCell id="RC4oqEELy3gwianFtOuK-7" value="App Server2" style="rounded=1;whiteSpace=wrap;html=1;fillColor=#fff2cc;strokeColor=#d6b656;" parent="1" vertex="1">
          <mxGeometry x="348.99" y="243" width="90" height="40" as="geometry" />
        </mxCell>
        <mxCell id="RC4oqEELy3gwianFtOuK-8" value="" style="endArrow=classic;html=1;rounded=0;exitX=0.5;exitY=1;exitDx=0;exitDy=0;exitPerimeter=0;" parent="1" source="SCMvMcW7dWXdQyEaetod-3" target="RC4oqEELy3gwianFtOuK-7" edge="1">
          <mxGeometry width="50" height="50" relative="1" as="geometry">
            <mxPoint x="395" y="190" as="sourcePoint" />
            <mxPoint x="430" y="190" as="targetPoint" />
          </mxGeometry>
        </mxCell>
        <mxCell id="RC4oqEELy3gwianFtOuK-9" value="App Server3" style="rounded=1;whiteSpace=wrap;html=1;fillColor=#fff2cc;strokeColor=#d6b656;" parent="1" vertex="1">
          <mxGeometry x="521" y="240" width="90" height="40" as="geometry" />
        </mxCell>
        <mxCell id="RC4oqEELy3gwianFtOuK-10" value="" style="endArrow=classic;html=1;rounded=0;entryX=0.5;entryY=0;entryDx=0;entryDy=0;edgeStyle=orthogonalEdgeStyle;" parent="1" source="SCMvMcW7dWXdQyEaetod-3" target="RC4oqEELy3gwianFtOuK-9" edge="1">
          <mxGeometry width="50" height="50" relative="1" as="geometry">
            <mxPoint x="437.5" y="150" as="sourcePoint" />
            <mxPoint x="430" y="190" as="targetPoint" />
          </mxGeometry>
        </mxCell>
        <mxCell id="RC4oqEELy3gwianFtOuK-12" value="Airtel SMS service" style="ellipse;whiteSpace=wrap;html=1;fillColor=#e1d5e7;strokeColor=#9673a6;" parent="1" vertex="1">
          <mxGeometry x="155" y="960" width="80" height="50" as="geometry" />
        </mxCell>
        <mxCell id="RC4oqEELy3gwianFtOuK-13" value="Twillo Airtel Service" style="ellipse;whiteSpace=wrap;html=1;fillColor=#e1d5e7;strokeColor=#9673a6;" parent="1" vertex="1">
          <mxGeometry x="348" y="960" width="80" height="50" as="geometry" />
        </mxCell>
        <mxCell id="RC4oqEELy3gwianFtOuK-14" value="" style="endArrow=classic;html=1;rounded=0;exitX=0.5;exitY=1;exitDx=0;exitDy=0;" parent="1" source="RC4oqEELy3gwianFtOuK-3" target="SCMvMcW7dWXdQyEaetod-4" edge="1">
          <mxGeometry width="50" height="50" relative="1" as="geometry">
            <mxPoint x="380" y="450" as="sourcePoint" />
            <mxPoint x="358.0050000000001" y="405.99" as="targetPoint" />
          </mxGeometry>
        </mxCell>
        <mxCell id="RC4oqEELy3gwianFtOuK-15" value="" style="endArrow=classic;html=1;rounded=0;exitX=0.5;exitY=1;exitDx=0;exitDy=0;entryX=0.5;entryY=0;entryDx=0;entryDy=0;entryPerimeter=0;" parent="1" source="RC4oqEELy3gwianFtOuK-7" target="SCMvMcW7dWXdQyEaetod-4" edge="1">
          <mxGeometry width="50" height="50" relative="1" as="geometry">
            <mxPoint x="249" y="280" as="sourcePoint" />
            <mxPoint x="392" y="410" as="targetPoint" />
          </mxGeometry>
        </mxCell>
        <mxCell id="RC4oqEELy3gwianFtOuK-16" value="" style="endArrow=classic;html=1;rounded=0;exitX=0.5;exitY=1;exitDx=0;exitDy=0;entryX=1;entryY=0.21;entryDx=0;entryDy=0;entryPerimeter=0;" parent="1" source="RC4oqEELy3gwianFtOuK-9" target="SCMvMcW7dWXdQyEaetod-4" edge="1">
          <mxGeometry width="50" height="50" relative="1" as="geometry">
            <mxPoint x="404" y="280" as="sourcePoint" />
            <mxPoint x="420" y="420" as="targetPoint" />
          </mxGeometry>
        </mxCell>
        <mxCell id="RC4oqEELy3gwianFtOuK-25" value="" style="endArrow=classic;html=1;rounded=0;exitX=0.5;exitY=0;exitDx=0;exitDy=0;" parent="1" source="RC4oqEELy3gwianFtOuK-27" edge="1">
          <mxGeometry width="50" height="50" relative="1" as="geometry">
            <mxPoint x="300" y="570" as="sourcePoint" />
            <mxPoint x="392" y="480" as="targetPoint" />
          </mxGeometry>
        </mxCell>
        <mxCell id="RC4oqEELy3gwianFtOuK-27" value="Process Message Consumer" style="rounded=1;whiteSpace=wrap;html=1;fillColor=#fff2cc;strokeColor=#d6b656;" parent="1" vertex="1">
          <mxGeometry x="324.37" y="570" width="135.25" height="50" as="geometry" />
        </mxCell>
        <mxCell id="RC4oqEELy3gwianFtOuK-29" value="" style="endArrow=classic;html=1;rounded=0;exitX=0.028;exitY=0.422;exitDx=0;exitDy=0;edgeStyle=orthogonalEdgeStyle;exitPerimeter=0;entryX=0.65;entryY=0.16;entryDx=0;entryDy=0;entryPerimeter=0;" parent="1" source="RC4oqEELy3gwianFtOuK-33" target="SCMvMcW7dWXdQyEaetod-10" edge="1">
          <mxGeometry width="50" height="50" relative="1" as="geometry">
            <mxPoint x="380" y="730" as="sourcePoint" />
            <mxPoint x="195" y="790" as="targetPoint" />
          </mxGeometry>
        </mxCell>
        <mxCell id="RC4oqEELy3gwianFtOuK-33" value="Decide SMS Provider" style="rhombus;whiteSpace=wrap;html=1;fillColor=#f8cecc;strokeColor=#b85450;" parent="1" vertex="1">
          <mxGeometry x="343.24" y="660" width="97.5" height="90" as="geometry" />
        </mxCell>
        <mxCell id="RC4oqEELy3gwianFtOuK-34" value="" style="endArrow=classic;html=1;rounded=0;exitX=0.5;exitY=1;exitDx=0;exitDy=0;entryX=0.5;entryY=0;entryDx=0;entryDy=0;" parent="1" source="RC4oqEELy3gwianFtOuK-27" target="RC4oqEELy3gwianFtOuK-33" edge="1">
          <mxGeometry width="50" height="50" relative="1" as="geometry">
            <mxPoint x="380" y="800" as="sourcePoint" />
            <mxPoint x="430" y="750" as="targetPoint" />
          </mxGeometry>
        </mxCell>
        <mxCell id="RC4oqEELy3gwianFtOuK-35" value="" style="endArrow=classic;html=1;rounded=0;exitX=0.5;exitY=1;exitDx=0;exitDy=0;" parent="1" source="RC4oqEELy3gwianFtOuK-33" target="SCMvMcW7dWXdQyEaetod-9" edge="1">
          <mxGeometry width="50" height="50" relative="1" as="geometry">
            <mxPoint x="380" y="750" as="sourcePoint" />
            <mxPoint x="389.53461538461534" y="790" as="targetPoint" />
          </mxGeometry>
        </mxCell>
        <mxCell id="RC4oqEELy3gwianFtOuK-37" value="" style="endArrow=classic;html=1;rounded=0;exitX=1;exitY=0.5;exitDx=0;exitDy=0;edgeStyle=orthogonalEdgeStyle;" parent="1" source="RC4oqEELy3gwianFtOuK-33" target="SCMvMcW7dWXdQyEaetod-8" edge="1">
          <mxGeometry width="50" height="50" relative="1" as="geometry">
            <mxPoint x="380" y="870" as="sourcePoint" />
            <mxPoint x="555" y="790" as="targetPoint" />
          </mxGeometry>
        </mxCell>
        <mxCell id="RC4oqEELy3gwianFtOuK-38" value="" style="endArrow=classic;html=1;rounded=0;exitX=0.5;exitY=0;exitDx=0;exitDy=0;" parent="1" source="RC4oqEELy3gwianFtOuK-12" edge="1" target="SCMvMcW7dWXdQyEaetod-10">
          <mxGeometry width="50" height="50" relative="1" as="geometry">
            <mxPoint x="380" y="910" as="sourcePoint" />
            <mxPoint x="195" y="840" as="targetPoint" />
          </mxGeometry>
        </mxCell>
        <mxCell id="RC4oqEELy3gwianFtOuK-40" value="" style="endArrow=classic;html=1;rounded=0;exitX=0.5;exitY=0;exitDx=0;exitDy=0;" parent="1" source="RC4oqEELy3gwianFtOuK-13" target="SCMvMcW7dWXdQyEaetod-9" edge="1">
          <mxGeometry width="50" height="50" relative="1" as="geometry">
            <mxPoint x="380" y="910" as="sourcePoint" />
            <mxPoint x="388" y="840" as="targetPoint" />
          </mxGeometry>
        </mxCell>
        <mxCell id="RC4oqEELy3gwianFtOuK-41" value="Other SMS Service" style="ellipse;whiteSpace=wrap;html=1;fillColor=#e1d5e7;strokeColor=#9673a6;" parent="1" vertex="1">
          <mxGeometry x="510" y="960" width="80" height="50" as="geometry" />
        </mxCell>
        <mxCell id="RC4oqEELy3gwianFtOuK-42" value="" style="endArrow=classic;html=1;rounded=0;" parent="1" source="RC4oqEELy3gwianFtOuK-41" target="SCMvMcW7dWXdQyEaetod-8" edge="1">
          <mxGeometry width="50" height="50" relative="1" as="geometry">
            <mxPoint x="550" y="950" as="sourcePoint" />
            <mxPoint x="555" y="840" as="targetPoint" />
          </mxGeometry>
        </mxCell>
        <mxCell id="hsocOPPATjzEpRB6f7Aq-1" value="Pull" style="text;html=1;strokeColor=none;fillColor=none;align=center;verticalAlign=middle;whiteSpace=wrap;rounded=0;" parent="1" vertex="1">
          <mxGeometry x="190" y="900" width="60" height="30" as="geometry" />
        </mxCell>
        <mxCell id="hsocOPPATjzEpRB6f7Aq-2" value="Pull" style="text;html=1;strokeColor=none;fillColor=none;align=center;verticalAlign=middle;whiteSpace=wrap;rounded=0;" parent="1" vertex="1">
          <mxGeometry x="380.74" y="520" width="60" height="30" as="geometry" />
        </mxCell>
        <mxCell id="SCMvMcW7dWXdQyEaetod-3" value="Elastic Load Balancing" style="outlineConnect=0;dashed=0;verticalLabelPosition=bottom;verticalAlign=top;align=center;html=1;shape=mxgraph.aws3.elastic_load_balancing;fillColor=#F58534;gradientColor=none;" parent="1" vertex="1">
          <mxGeometry x="364" y="120" width="60" height="60" as="geometry" />
        </mxCell>
        <mxCell id="SCMvMcW7dWXdQyEaetod-4" value="&lt;div&gt;Amazon SQS &lt;br&gt;&lt;/div&gt;&lt;div&gt;- Notifications Queue&lt;/div&gt;" style="outlineConnect=0;dashed=0;verticalLabelPosition=bottom;verticalAlign=top;align=center;html=1;shape=mxgraph.aws3.sqs;fillColor=#D9A741;gradientColor=none;" parent="1" vertex="1">
          <mxGeometry x="369.87" y="419" width="44.25" height="50" as="geometry" />
        </mxCell>
        <mxCell id="SCMvMcW7dWXdQyEaetod-6" value="Auto-Scaling ( based on &quot;Notifications Queue&quot; Size )" style="text;html=1;strokeColor=none;fillColor=none;align=center;verticalAlign=middle;whiteSpace=wrap;rounded=0;" parent="1" vertex="1">
          <mxGeometry x="190" y="550" width="116" height="30" as="geometry" />
        </mxCell>
        <mxCell id="SCMvMcW7dWXdQyEaetod-7" value="&lt;div style=&quot;text-align: center;&quot;&gt;&lt;span style=&quot;background-color: initial;&quot;&gt;&lt;font color=&quot;#333333&quot;&gt;Based on SMS Service Queues Size, this decision would be done&lt;/font&gt;&lt;/span&gt;&lt;/div&gt;" style="text;whiteSpace=wrap;html=1;" parent="1" vertex="1">
          <mxGeometry x="428" y="660" width="192" height="40" as="geometry" />
        </mxCell>
        <mxCell id="SCMvMcW7dWXdQyEaetod-8" value="&lt;div&gt;Amazon SQS &lt;br&gt;&lt;/div&gt;&lt;div&gt;- Other Queue &lt;/div&gt;" style="outlineConnect=0;dashed=0;verticalLabelPosition=bottom;verticalAlign=top;align=center;html=1;shape=mxgraph.aws3.sqs;fillColor=#D9A741;gradientColor=none;" parent="1" vertex="1">
          <mxGeometry x="530" y="790" width="40" height="50" as="geometry" />
        </mxCell>
        <mxCell id="SCMvMcW7dWXdQyEaetod-9" value="&lt;div&gt;Amazon SQS&lt;/div&gt;&lt;div&gt;- Twillo Queue &lt;br&gt;&lt;/div&gt;" style="outlineConnect=0;dashed=0;verticalLabelPosition=bottom;verticalAlign=top;align=center;html=1;shape=mxgraph.aws3.sqs;fillColor=#D9A741;gradientColor=none;" parent="1" vertex="1">
          <mxGeometry x="369" y="790" width="40" height="50" as="geometry" />
        </mxCell>
        <mxCell id="SCMvMcW7dWXdQyEaetod-10" value="&lt;div&gt;Amazon SQS &lt;br&gt;&lt;/div&gt;&lt;div&gt;- Airtel Queue &lt;/div&gt;" style="outlineConnect=0;dashed=0;verticalLabelPosition=bottom;verticalAlign=top;align=center;html=1;shape=mxgraph.aws3.sqs;fillColor=#D9A741;gradientColor=none;" parent="1" vertex="1">
          <mxGeometry x="175" y="790" width="40" height="50" as="geometry" />
        </mxCell>
        <mxCell id="XWJMHJDdhMRQOgqJG1MP-2" value="Service A" style="text;html=1;strokeColor=none;fillColor=none;align=center;verticalAlign=middle;whiteSpace=wrap;rounded=0;dashed=1;" vertex="1" parent="1">
          <mxGeometry x="395" y="-70" width="60" height="30" as="geometry" />
        </mxCell>
        <mxCell id="XWJMHJDdhMRQOgqJG1MP-6" value="Auto-Scaling" style="text;html=1;strokeColor=none;fillColor=none;align=center;verticalAlign=middle;whiteSpace=wrap;rounded=0;dashed=1;" vertex="1" parent="1">
          <mxGeometry x="100" y="200" width="80" height="30" as="geometry" />
        </mxCell>
        <mxCell id="XWJMHJDdhMRQOgqJG1MP-7" value="WAF - Rate Limiting" style="outlineConnect=0;dashed=0;verticalLabelPosition=bottom;verticalAlign=top;align=center;html=1;shape=mxgraph.aws3.waf;fillColor=#759C3E;gradientColor=none;" vertex="1" parent="1">
          <mxGeometry x="362.87" y="-20" width="54.26" height="70" as="geometry" />
        </mxCell>
        <mxCell id="XWJMHJDdhMRQOgqJG1MP-9" value="" style="endArrow=classic;html=1;rounded=0;exitX=0.5;exitY=1;exitDx=0;exitDy=0;exitPerimeter=0;" edge="1" parent="1" source="XWJMHJDdhMRQOgqJG1MP-7">
          <mxGeometry width="50" height="50" relative="1" as="geometry">
            <mxPoint x="340" y="160" as="sourcePoint" />
            <mxPoint x="390" y="110" as="targetPoint" />
          </mxGeometry>
        </mxCell>
        <mxCell id="XWJMHJDdhMRQOgqJG1MP-11" value="Redis" style="outlineConnect=0;dashed=0;verticalLabelPosition=bottom;verticalAlign=top;align=center;html=1;shape=mxgraph.aws3.redis;fillColor=#2E73B8;gradientColor=none;" vertex="1" parent="1">
          <mxGeometry x="417.13" y="1070" width="60" height="63" as="geometry" />
        </mxCell>
        <mxCell id="XWJMHJDdhMRQOgqJG1MP-13" value="" style="endArrow=classic;html=1;rounded=0;exitX=1;exitY=1;exitDx=0;exitDy=0;entryX=0.05;entryY=0.05;entryDx=0;entryDy=0;entryPerimeter=0;" edge="1" parent="1" source="RC4oqEELy3gwianFtOuK-12" target="XWJMHJDdhMRQOgqJG1MP-11">
          <mxGeometry width="50" height="50" relative="1" as="geometry">
            <mxPoint x="340" y="1230" as="sourcePoint" />
            <mxPoint x="390" y="1180" as="targetPoint" />
          </mxGeometry>
        </mxCell>
        <mxCell id="XWJMHJDdhMRQOgqJG1MP-16" value="1. Check Rate Limit ( to&amp;nbsp; follow Provider&#39;s SLA )" style="text;html=1;strokeColor=none;fillColor=none;align=center;verticalAlign=middle;whiteSpace=wrap;rounded=0;dashed=1;" vertex="1" parent="1">
          <mxGeometry x="481" y="1070" width="130" height="30" as="geometry" />
        </mxCell>
        <mxCell id="XWJMHJDdhMRQOgqJG1MP-17" value="" style="endArrow=classic;html=1;rounded=0;" edge="1" parent="1" source="RC4oqEELy3gwianFtOuK-13" target="XWJMHJDdhMRQOgqJG1MP-11">
          <mxGeometry width="50" height="50" relative="1" as="geometry">
            <mxPoint x="340" y="1110" as="sourcePoint" />
            <mxPoint x="390" y="1060" as="targetPoint" />
          </mxGeometry>
        </mxCell>
        <mxCell id="XWJMHJDdhMRQOgqJG1MP-18" value="" style="endArrow=classic;html=1;rounded=0;exitX=0;exitY=1;exitDx=0;exitDy=0;" edge="1" parent="1" source="RC4oqEELy3gwianFtOuK-41" target="XWJMHJDdhMRQOgqJG1MP-11">
          <mxGeometry width="50" height="50" relative="1" as="geometry">
            <mxPoint x="340" y="1110" as="sourcePoint" />
            <mxPoint x="390" y="1060" as="targetPoint" />
          </mxGeometry>
        </mxCell>
        <mxCell id="XWJMHJDdhMRQOgqJG1MP-20" value="" style="shape=image;imageAspect=0;aspect=fixed;verticalLabelPosition=bottom;verticalAlign=top;dashed=1;image=https://5.imimg.com/data5/YU/PM/MY-7507097/sms-api-airtel-provider-250x250.png;" vertex="1" parent="1">
          <mxGeometry x="130.73" y="1170" width="128.53" height="96.14" as="geometry" />
        </mxCell>
        <mxCell id="XWJMHJDdhMRQOgqJG1MP-21" value="" style="endArrow=classic;html=1;rounded=0;exitX=0.5;exitY=1;exitDx=0;exitDy=0;" edge="1" parent="1" source="RC4oqEELy3gwianFtOuK-12" target="XWJMHJDdhMRQOgqJG1MP-20">
          <mxGeometry width="50" height="50" relative="1" as="geometry">
            <mxPoint x="340" y="1170" as="sourcePoint" />
            <mxPoint x="390" y="1120" as="targetPoint" />
          </mxGeometry>
        </mxCell>
        <mxCell id="XWJMHJDdhMRQOgqJG1MP-22" value="1. Call Airtel SMS API" style="text;html=1;strokeColor=none;fillColor=none;align=center;verticalAlign=middle;whiteSpace=wrap;rounded=0;dashed=1;" vertex="1" parent="1">
          <mxGeometry x="110" y="1080" width="79" height="30" as="geometry" />
        </mxCell>
        <mxCell id="XWJMHJDdhMRQOgqJG1MP-23" value="" style="shape=image;imageAspect=0;aspect=fixed;verticalLabelPosition=bottom;verticalAlign=top;dashed=1;image=https://www.gopomelo.com/hubfs/twilio-logo-red.png;" vertex="1" parent="1">
          <mxGeometry x="312.33000000000004" y="1196.1399999999999" width="151.67" height="70" as="geometry" />
        </mxCell>
        <mxCell id="XWJMHJDdhMRQOgqJG1MP-24" value="" style="endArrow=classic;html=1;rounded=0;exitX=0.5;exitY=1;exitDx=0;exitDy=0;" edge="1" parent="1" source="RC4oqEELy3gwianFtOuK-13" target="XWJMHJDdhMRQOgqJG1MP-23">
          <mxGeometry width="50" height="50" relative="1" as="geometry">
            <mxPoint x="340" y="1080" as="sourcePoint" />
            <mxPoint x="390" y="1030" as="targetPoint" />
          </mxGeometry>
        </mxCell>
        <mxCell id="XWJMHJDdhMRQOgqJG1MP-25" value="2. Call Twillo SMS API" style="text;html=1;strokeColor=none;fillColor=none;align=center;verticalAlign=middle;whiteSpace=wrap;rounded=0;dashed=1;" vertex="1" parent="1">
          <mxGeometry x="300" y="1120" width="77.99" height="30" as="geometry" />
        </mxCell>
        <mxCell id="XWJMHJDdhMRQOgqJG1MP-26" value="Other SMS Provider" style="ellipse;whiteSpace=wrap;html=1;aspect=fixed;dashed=1;" vertex="1" parent="1">
          <mxGeometry x="510" y="1183.1399999999999" width="80" height="80" as="geometry" />
        </mxCell>
        <mxCell id="XWJMHJDdhMRQOgqJG1MP-27" value="" style="endArrow=classic;html=1;rounded=0;exitX=0.5;exitY=1;exitDx=0;exitDy=0;" edge="1" parent="1" source="RC4oqEELy3gwianFtOuK-41" target="XWJMHJDdhMRQOgqJG1MP-26">
          <mxGeometry width="50" height="50" relative="1" as="geometry">
            <mxPoint x="340" y="1020" as="sourcePoint" />
            <mxPoint x="390" y="970" as="targetPoint" />
          </mxGeometry>
        </mxCell>
      </root>
    </mxGraphModel>
  </diagram>
</mxfile>
